<svg width="26" height="25" viewBox="0 0 26 25" fill="none" xmlns="http://www.w3.org/2000/svg">
<path d="M14.748 22.5C14.5194 22.8752 14.1914 23.1867 13.7967 23.4032C13.402 23.6197 12.9545 23.7337 12.499 23.7337C12.0435 23.7337 11.596 23.6197 11.2013 23.4032C10.8066 23.1867 10.4786 22.8752 10.25 22.5" stroke="white" stroke-linecap="round" stroke-linejoin="round"/>
<path d="M20.7499 7.92857C20.7499 5.95839 19.9282 4.0689 18.4654 2.67578C17.0026 1.28265 15.0187 0.5 12.95 0.5C10.8814 0.5 8.89735 1.28265 7.43457 2.67578C5.97178 4.0689 5.15 5.95839 5.15 7.92857C5.15 16.5953 1.25 19.0715 1.25 19.0715H24.65C24.65 19.0715 20.7499 16.5953 20.7499 7.92857Z" stroke="white" stroke-linecap="round" stroke-linejoin="round"/>
</svg>
